<svg xmlns="http://www.w3.org/2000/svg" viewBox="0 0 128 128" width="128" height="128">
  <path fill="#F05032" d="M124.737 58.378L69.621 3.264c-3.172-3.174-8.32-3.174-11.497 0L46.68 14.71l14.518 14.518c3.375-1.139 7.243-.375 9.934 2.314 2.703 2.706 3.461 6.607 2.294 9.993l13.992 13.993c3.386-1.167 7.292-.413 9.994 2.311 3.78 3.777 3.78 9.9 0 13.679a9.673 9.673 0 01-13.683 0c-2.842-2.844-3.545-7.019-2.105-10.521l-13.048-13.048-.002 34.341c.92.412 1.791.996 2.559 1.763 3.778 3.777 3.778 9.898 0 13.683-3.779 3.777-9.904 3.777-13.683 0-3.778-3.784-3.778-9.905 0-13.683.767-.767 1.647-1.353 2.557-1.763V47.326c-.91-.41-1.79-.996-2.557-1.763-2.862-2.86-7.228-3.551-10.58-2.083L14.7 27.818 3.264 39.253c-3.173 3.172-3.173 8.325 0 11.5l55.116 55.114c3.174 3.174 8.325 3.174 11.499 0l54.858-54.858c3.174-3.176 3.174-8.327 0-11.501"/>
</svg>





